HIERARCHY
ROOT Hips
{
	OFFSET 0.00000 0.00000 0.00000
	CHANNELS 6 Xposition Yposition Zposition Zrotation Yrotation Xrotation 
	JOINT LHipJoint
	{
		OFFSET 0 0 0
		CHANNELS 3 Zrotation Yrotation Xrotation
		JOINT LeftUpLeg
		{
			OFFSET 1.36337 -1.57426 1.11036
			CHANNELS 3 Zrotation Yrotation Xrotation
			JOINT LeftLeg
			{
				OFFSET 2.38468 -6.55187 0.00000
				CHANNELS 3 Zrotation Yrotation Xrotation
				JOINT LeftFoot
				{
					OFFSET 2.37166 -6.51609 0.00000
					CHANNELS 3 Zrotation Yrotation Xrotation
					JOINT LeftToeBase
					{
						OFFSET 0.29078 -0.79891 2.01393
						CHANNELS 3 Zrotation Yrotation Xrotation
						End Site
						{
							OFFSET 0.00000 -0.00000 1.07924
						}
					}
				}
			}
		}
	}
	JOINT RHipJoint
	{
		OFFSET 0 0 0
		CHANNELS 3 Zrotation Yrotation Xrotation
		JOINT RightUpLeg
		{
			OFFSET -1.36349 -1.57426 1.11036
			CHANNELS 3 Zrotation Yrotation Xrotation
			JOINT RightLeg
			{
				OFFSET -2.29562 -6.30717 0.00000
				CHANNELS 3 Zrotation Yrotation Xrotation
				JOINT RightFoot
				{
					OFFSET -2.40985 -6.62100 0.00000
					CHANNELS 3 Zrotation Yrotation Xrotation
					JOINT RightToeBase
					{
						OFFSET -0.23197 -0.63733 1.92232
						CHANNELS 3 Zrotation Yrotation Xrotation
						End Site
						{
							OFFSET -0.00000 -0.00000 1.01562
						}
					}
				}
			}
		}
	}
	JOINT LowerBack
	{
		OFFSET 0 0 0
		CHANNELS 3 Zrotation Yrotation Xrotation
		JOINT Spine
		{
			OFFSET -0.08565 2.03602 -0.24562
			CHANNELS 3 Zrotation Yrotation Xrotation
			JOINT Spine1
			{
				OFFSET -0.00036 2.05693 0.00216
				CHANNELS 3 Zrotation Yrotation Xrotation
				JOINT Neck
				{
					OFFSET 0 0 0
					CHANNELS 3 Zrotation Yrotation Xrotation
					JOINT Neck1
					{
						OFFSET -0.03664 1.69515 0.31789
						CHANNELS 3 Zrotation Yrotation Xrotation
						JOINT Head
						{
							OFFSET 0.00932 1.70181 -0.46013
							CHANNELS 3 Zrotation Yrotation Xrotation
							End Site
							{
								OFFSET 0.01243 1.77620 -0.19377
							}
						}
					}
				}
				JOINT LeftShoulder
				{
					OFFSET 0 0 0
					CHANNELS 3 Zrotation Yrotation Xrotation
					JOINT LeftArm
					{
						OFFSET 3.74344 0.81315 -0.36647
						CHANNELS 3 Zrotation Yrotation Xrotation
						JOINT LeftForeArm
						{
							OFFSET 4.97185 -0.00000 -0.00000
							CHANNELS 3 Zrotation Yrotation Xrotation
							JOINT LeftHand
							{
								OFFSET 3.35811 -0.00000 0.00000
								CHANNELS 3 Zrotation Yrotation Xrotation
								JOINT LeftFingerBase
								{
									OFFSET 0 0 0
									CHANNELS 3 Zrotation Yrotation Xrotation
									JOINT LeftHandIndex1
									{
										OFFSET 0.62278 -0.00000 0.00000
										CHANNELS 3 Zrotation Yrotation Xrotation
										End Site
										{
											OFFSET 0.50210 -0.00000 0.00000
										}
									}
								}
								JOINT LThumb
								{
									OFFSET 0 0 0
									CHANNELS 3 Zrotation Yrotation Xrotation
									End Site
									{
										OFFSET 0.50976 -0.00000 0.50976
									}
								}
							}
						}
					}
				}
				JOINT RightShoulder
				{
					OFFSET 0 0 0
					CHANNELS 3 Zrotation Yrotation Xrotation
					JOINT RightArm
					{
						OFFSET -3.75385 0.50666 -0.06525
						CHANNELS 3 Zrotation Yrotation Xrotation
						JOINT RightForeArm
						{
							OFFSET -4.96493 -0.00000 -0.00000
							CHANNELS 3 Zrotation Yrotation Xrotation
							JOINT RightHand
							{
								OFFSET -3.34929 -0.00000 0.00000
								CHANNELS 3 Zrotation Yrotation Xrotation
								JOINT RightFingerBase
								{
									OFFSET 0 0 0
									CHANNELS 3 Zrotation Yrotation Xrotation
									JOINT RightHandIndex1
									{
										OFFSET -0.63804 -0.00000 0.00000
										CHANNELS 3 Zrotation Yrotation Xrotation
										End Site
										{
											OFFSET -0.51441 -0.00000 0.00000
										}
									}
								}
								JOINT RThumb
								{
									OFFSET 0 0 0
									CHANNELS 3 Zrotation Yrotation Xrotation
									End Site
									{
										OFFSET -0.52226 -0.00000 0.52226
									}
								}
							}
						}
					}
				}
			}
		}
	}
}
MOTION
Frames: 14
Frame Time: .0083333
31.8177 14.3276 7.3489 683.7970 75.2119 340.8380 0.0000 0.0000 0.0000 -9.1960 -1.2339 -63.0042 16.5307 19.7089 79.8089 3.8306 4.0757 -38.5782 0.1023 2.0625 5.6785 0.0000 0.0000 0.0000 -0.5030 1.4655 -37.3002 -6.2581 -14.6739 46.0090 -0.9345 -3.5915 -19.8951 -2.3517 9.5631 -27.5732 -7.7918 3.0675 29.6065 -3.3923 1.9228 7.5529 -0.0415 1.2457 -7.8234 0.6603 7.3829 -29.5431 -4.0914 10.3376 2.6785 -0.1349 4.8721 5.5033 0.0000 0.0000 0.0000 -93.3144 -39.1234 130.4595 33.4994 -43.7104 -13.7659 -0.0000 0.0000 -4.2784 -0.0771 -7.9208 0.0106 -7.1250 0.0000 -0.0000 -19.3085 22.1568 11.2381 0.0000 0.0000 0.0000 85.8475 10.9129 44.1673 -13.1832 21.5551 -2.5202 0.0000 -0.0000 -50.8870 7.9707 -36.2552 -4.7335 7.1250 -0.0000 -0.0000 47.4110 -59.6670 -19.5864
31.8654 14.3717 7.3320 682.6970 75.4340 339.8790 0.0000 0.0000 0.0000 -9.1968 -1.6285 -62.5976 16.3049 19.6694 79.1387 3.8265 4.3499 -38.6664 0.1042 2.0812 5.7302 0.0000 0.0000 0.0000 0.0678 1.5246 -37.7689 -6.1635 -14.5849 45.6342 -0.9236 -3.3502 -19.6598 -2.4046 9.6623 -27.8900 -7.4689 2.9859 29.2974 -3.3002 1.9446 7.5260 -0.1161 1.2473 -7.7062 0.2587 7.0661 -29.4460 -3.7557 10.0240 2.3248 -0.0197 4.7611 5.3294 0.0000 -0.0000 0.0000 -93.2782 -38.9741 130.4756 33.5586 -43.7550 -13.8069 -0.0000 0.0000 -4.9053 0.5868 -7.6052 -0.0777 -7.1250 0.0000 -0.0000 -18.8900 22.4538 10.8288 0.0000 -0.0000 0.0000 85.7234 10.9443 44.2245 -13.3285 21.7666 -2.5738 0.0000 -0.0000 -50.9565 7.9868 -36.3381 -4.7525 7.1250 -0.0000 -0.0000 47.5232 -59.7218 -19.7101
31.9135 14.4266 7.3183 681.7630 75.7343 339.0470 0.0000 0.0000 0.0000 -9.2699 -2.0871 -62.0971 16.0771 19.6270 78.4614 3.8720 4.4132 -38.9094 0.1446 2.4505 6.7525 0.0000 0.0000 0.0000 0.5608 1.6918 -38.3389 -6.1788 -14.5994 45.6950 -0.9366 -3.1800 -19.6933 -2.2770 9.4206 -27.1200 -7.6709 2.8841 29.3939 -3.1184 1.7477 7.4114 0.2651 1.1589 -7.8819 0.2560 7.0661 -30.2461 -3.4755 10.0126 2.7499 0.1010 4.7575 5.5565 -0.0000 -0.0000 0.0000 -92.8611 -38.8618 129.8225 33.6205 -43.8016 -13.8497 -0.0000 0.0000 -5.8460 1.7979 -7.2596 -0.2273 -7.1250 0.0000 -0.0000 -18.0880 22.7777 10.1766 -0.0000 -0.0000 0.0000 85.5143 10.9690 44.9781 -13.6355 22.2113 -2.6888 0.0000 -0.0000 -51.1861 7.5120 -36.8090 -4.5174 7.1250 -0.0000 -0.0000 47.6571 -60.1681 -20.2995
31.9653 14.4871 7.3028 680.8620 76.1403 338.2210 0.0000 0.0000 0.0000 -9.4411 -2.7078 -61.4372 15.8153 19.5749 77.6809 3.9115 4.5956 -39.1698 0.1775 2.7138 7.4828 0.0000 0.0000 0.0000 1.0149 1.7063 -38.9374 -6.2147 -14.6333 45.8376 -0.9322 -3.1250 -19.6213 -2.1576 9.1869 -26.3817 -7.9722 2.8097 29.7393 -2.8261 1.5013 7.0211 0.8298 1.0585 -8.4921 0.8014 7.1661 -29.7731 -4.0751 10.0006 2.5190 -0.1916 4.7159 5.4800 -0.0000 -0.0000 0.0000 -92.6880 -38.1431 129.1656 33.5968 -43.7838 -13.8333 -0.0000 0.0000 -7.5510 3.0386 -6.8953 -0.3651 -7.1250 0.0000 -0.0000 -17.2583 23.1187 9.5216 -0.0000 -0.0000 0.0000 84.9466 10.3410 46.2294 -14.1731 22.9817 -2.8954 0.0000 -0.0000 -51.8842 7.2119 -37.4669 -4.4017 7.1250 -0.0000 -0.0000 48.1953 -60.7024 -21.2170
32.0226 14.5466 7.2871 680.3430 76.6198 337.7400 0.0000 0.0000 0.0000 -9.8015 -3.3700 -60.6112 15.5316 19.5144 76.8330 3.9451 4.9141 -39.4570 0.1696 2.6531 7.3144 0.0000 0.0000 0.0000 1.4023 1.5093 -39.5776 -6.2722 -14.6870 46.0646 -0.9487 -2.9120 -19.6686 -2.1792 9.2298 -26.5168 -8.0976 2.6436 29.6833 -2.6989 1.2578 6.9127 1.1327 0.9489 -8.5756 0.9845 7.1840 -29.6646 -4.2285 9.9718 2.4894 -0.2751 4.6916 5.4732 0.0000 0.0000 0.0000 -92.4584 -37.7265 128.4674 33.5560 -43.7530 -13.8051 -0.0000 0.0000 -9.9582 3.3484 -6.4256 -0.3752 -7.1250 0.0000 -0.0000 -17.0960 23.5664 9.2382 0.0000 0.0000 0.0000 84.5127 10.0369 47.5364 -14.7647 23.8174 -3.1303 0.0000 -0.0000 -52.6748 7.4169 -37.8625 -4.5682 7.1250 -0.0000 -0.0000 48.8801 -60.9249 -21.8673
32.0794 14.6044 7.2738 679.3860 77.0158 336.7980 0.0000 0.0000 0.0000 -10.0572 -3.8921 -59.7291 15.2415 19.4482 75.9632 3.9914 5.0223 -39.7185 0.1786 2.7219 7.5055 0.0000 0.0000 0.0000 2.0028 1.4032 -40.2526 -6.3479 -14.7572 46.3624 -0.9868 -2.7127 -19.9280 -2.1543 9.1804 -26.3611 -7.9901 2.4824 29.7233 -2.5800 1.0813 6.8257 1.2672 0.8677 -8.6837 1.3344 7.1117 -29.4511 -4.4509 9.7730 2.4040 -0.4314 4.5838 5.4421 0.0000 -0.0000 0.0000 -92.1637 -37.3505 127.7152 33.6400 -43.8162 -13.8632 -0.0000 0.0000 -12.8836 3.5209 -5.7457 -0.3529 -7.1250 0.0000 -0.0000 -17.0581 24.2169 8.9461 0.0000 -0.0000 0.0000 84.1658 9.7699 48.6488 -15.3448 24.6242 -3.3683 0.0000 -0.0000 -53.4121 6.5532 -34.4000 -3.7134 7.1250 -0.0000 -0.0000 44.0309 -58.6520 -16.7240
32.1324 14.6601 7.2625 678.8100 77.2017 336.2990 0.0000 0.0000 0.0000 -10.2659 -4.1285 -59.0539 14.9597 19.3797 75.1153 4.0212 5.0112 -39.8531 0.2030 2.9010 8.0033 0.0000 0.0000 0.0000 2.6464 1.6639 -41.1368 -6.4477 -14.8486 46.7533 -1.0150 -2.6165 -20.1436 -2.0878 9.0466 -25.9412 -7.7446 2.4463 29.6720 -2.4620 1.1130 6.7582 1.2491 0.8782 -8.7409 1.2157 7.0049 -29.6808 -4.4615 9.6807 2.7358 -0.4166 4.5199 5.5760 0.0000 0.0000 0.0000 -92.0113 -37.0566 127.1120 33.8034 -43.9385 -13.9765 -0.0000 0.0000 -15.3872 3.6009 -4.8457 -0.3046 -7.1250 0.0000 -0.0000 -17.1184 25.0789 8.6202 0.0000 0.0000 0.0000 83.7707 9.4835 49.2718 -16.0133 25.5386 -3.6517 0.0000 -0.0000 -53.9752 6.1539 -33.7393 -3.4271 7.1250 -0.0000 -0.0000 42.9660 -58.2488 -15.7841
32.1997 14.7268 7.2435 678.4320 77.7719 335.8090 0.0000 0.0000 0.0000 -10.7850 -4.5869 -58.0871 14.6571 19.3013 74.2015 4.0254 5.2309 -39.9620 0.1852 2.7718 7.6439 0.0000 0.0000 0.0000 3.1549 1.4191 -41.7684 -6.5629 -14.9525 47.2012 -1.0489 -2.3276 -20.3165 -1.9944 8.8543 -25.3407 -7.5485 2.1800 29.6387 -2.4087 0.8790 6.9926 1.2888 0.7616 -8.4378 1.2001 7.0277 -30.1769 -4.7463 9.7581 2.7611 -0.4831 4.5282 5.6685 0.0000 -0.0000 0.0000 -91.5721 -37.2481 126.3930 33.7399 -43.8911 -13.9324 -0.0000 0.0000 -16.1760 4.9525 -4.2595 -0.3688 -7.1250 0.0000 -0.0000 -16.2127 25.6445 7.9021 0.0000 -0.0000 0.0000 83.3626 9.6586 50.1379 -16.7925 26.5834 -3.9940 0.0000 -0.0000 -54.6688 6.0032 -34.6228 -3.4193 7.1250 -0.0000 -0.0000 43.7683 -58.9433 -16.9137
32.2763 14.7972 7.2211 677.6740 78.4358 334.9620 0.0000 0.0000 0.0000 -11.3512 -5.0608 -57.0805 14.3527 19.2175 73.2789 4.0093 5.5072 -40.0010 0.1744 2.6900 7.4170 0.0000 0.0000 0.0000 3.8548 0.8540 -42.5716 -6.7144 -15.0866 47.7858 -1.0458 -2.2307 -20.2425 -1.9621 8.7867 -25.1305 -7.3902 1.9110 29.8330 -2.2016 0.5793 6.9146 1.5356 0.6248 -8.6012 1.1883 7.1821 -30.5526 -4.7936 9.9822 3.6124 -0.4394 4.5886 6.0100 0.0000 0.0000 0.0000 -91.3949 -36.7838 125.4951 33.6387 -43.8152 -13.8623 -0.0000 0.0000 -18.1000 4.8512 -3.2578 -0.2763 -7.1250 0.0000 -0.0000 -16.4214 26.6090 7.6238 0.0000 0.0000 0.0000 82.5959 9.1861 51.4354 -17.7290 27.8088 -4.4221 0.0000 -0.0000 -55.8858 5.6195 -35.4898 -3.2694 7.1250 -0.0000 -0.0000 44.3793 -59.6729 -18.0088
32.3466 14.8624 7.2044 677.2670 78.8980 334.4930 0.0000 0.0000 0.0000 -11.8870 -5.2158 -56.1802 14.0509 19.1294 72.3600 3.9898 5.5037 -39.9089 0.1989 2.8715 7.9212 0.0000 0.0000 0.0000 4.6530 0.6663 -43.6269 -6.9111 -15.2566 48.5374 -1.0508 -2.0703 -20.2143 -1.9684 8.7999 -25.1715 -6.6529 1.6155 29.5341 -2.4017 0.4715 7.2049 0.9374 0.5543 -8.1198 2.2860 7.3870 -30.4905 -6.1314 10.0179 3.5232 -1.0347 4.5051 6.1103 -0.0000 -0.0000 0.0000 -90.7167 -36.8944 124.8112 33.7858 -43.9254 -13.9642 -0.0000 0.0000 -21.8621 6.3620 -1.7910 -0.1997 -7.1250 0.0000 -0.0000 -15.5014 28.0405 6.6199 -0.0000 -0.0000 0.0000 82.5177 9.2598 52.1533 -18.7106 29.0575 -4.8895 0.0000 -0.0000 -57.1483 4.6592 -36.4307 -2.7708 7.1250 -0.0000 -0.0000 44.5883 -60.5931 -19.1107
32.3998 14.9168 7.1944 678.0310 79.3438 335.3430 0.0000 0.0000 0.0000 -12.5477 -5.2356 -55.6251 13.7578 19.0389 71.4634 3.9692 5.1869 -39.6816 0.2316 3.0972 8.5494 0.0000 0.0000 0.0000 5.2412 0.9497 -45.0505 -7.1629 -15.4676 49.4879 -1.0933 -1.7063 -20.4381 -1.9280 8.7144 -24.9059 -6.3609 1.4884 29.4779 -2.3550 0.4071 7.2219 0.8471 0.5193 -8.0720 2.8039 7.6496 -30.4262 -7.2873 10.3378 3.9668 -1.4194 4.5384 6.3840 0.0000 -0.0000 0.0000 -90.4074 -36.6738 123.7900 34.0340 -44.1099 -14.1368 -0.0000 0.0000 -26.3391 6.4115 -0.7270 -0.0817 -7.1250 0.0000 -0.0000 -15.6184 29.0726 6.2752 0.0000 -0.0000 0.0000 81.9391 8.9971 52.7962 -19.9544 30.5874 -5.5081 0.0000 -0.0000 -58.4684 3.2798 -37.9047 -2.0163 7.1250 -0.0000 -0.0000 45.1374 -62.0068 -20.9233
32.4475 14.9657 7.1878 679.0240 79.7426 336.4270 0.0000 0.0000 0.0000 -13.1657 -5.1046 -55.1565 13.4665 18.9442 70.5683 3.9525 4.6169 -39.3724 0.2930 3.4806 9.6197 0.0000 0.0000 0.0000 5.9016 1.5054 -46.6562 -7.4509 -15.7001 50.5598 -1.1234 -1.5025 -20.6193 -1.8718 8.5938 -24.5328 -6.4736 1.3997 29.7230 -2.0217 0.2694 7.1859 1.3314 0.4600 -8.2228 2.7647 8.0653 -31.1478 -8.1098 11.0621 5.0706 -1.5370 4.7373 6.9482 0.0000 -0.0000 0.0000 -90.2087 -36.5039 122.2263 34.3699 -44.3569 -14.3710 -0.0000 0.0000 -29.9235 6.3574 0.1794 0.0200 -7.1250 0.0000 -0.0000 -15.7990 29.9495 6.0090 0.0000 -0.0000 0.0000 80.8637 8.9176 53.8461 -21.3329 32.2148 -6.2264 0.0000 -0.0000 -59.9206 1.7062 -39.1867 -1.0783 7.1250 -0.0000 -0.0000 45.3868 -63.3373 -22.4703
32.5028 15.0172 7.1787 680.2300 80.2389 337.6900 0.0000 0.0000 0.0000 -13.9121 -4.8921 -54.6168 13.1759 18.8447 69.6708 3.9433 3.9447 -39.0660 0.3662 3.8872 10.7594 0.0000 0.0000 0.0000 6.5604 1.9472 -48.2822 -7.7435 -15.9273 51.6334 -1.1434 -1.1939 -20.6698 -1.7654 8.3592 -23.8107 -6.6469 1.3151 30.1045 -1.6026 0.0912 6.9465 1.9616 0.3901 -8.6662 3.2379 8.7481 -31.3773 -9.5018 12.0728 6.3141 -1.8751 5.0153 7.6000 -0.0000 -0.0000 0.0000 -90.1302 -35.6798 120.4719 34.6991 -44.5961 -14.6017 -0.0000 0.0000 -31.3917 7.3776 0.7174 0.0929 -7.1250 0.0000 -0.0000 -15.0998 30.4959 5.5204 -0.0000 -0.0000 0.0000 79.8733 8.3939 54.7764 -22.6289 33.6805 -6.9314 0.0000 -0.0000 -60.9581 1.6819 -39.6120 -1.0726 7.1250 -0.0000 -0.0000 45.9647 -63.6441 -23.1425
32.5658 15.0681 7.1684 682.5500 80.9959 339.9840 0.0000 0.0000 0.0000 -15.0352 -4.6879 -53.9660 12.8961 18.7443 68.8026 3.8922 3.4716 -38.6435 0.3598 3.8535 10.6648 0.0000 0.0000 0.0000 6.9579 2.2018 -49.7261 -8.0088 -16.1258 52.5945 -1.1808 -0.6643 -20.7910 -1.6602 8.1192 -23.0766 -6.5696 1.0873 30.2779 -1.4879 -0.1688 6.9568 2.1406 0.2723 -8.7172 3.7694 9.3100 -31.5352 -10.8276 12.9279 7.4086 -2.2257 5.2272 8.2074 -0.0000 -0.0000 0.0000 -89.6679 -35.3427 119.0491 35.1924 -44.9491 -14.9491 -0.0000 0.0000 -31.9537 9.0151 1.0747 0.1705 -7.1250 0.0000 -0.0000 -13.8856 30.8855 4.9175 -0.0000 -0.0000 0.0000 79.6509 8.1000 54.9911 -23.7758 34.9263 -7.5778 0.0000 -0.0000 -61.2219 3.9237 -39.4770 -2.4969 7.1250 -0.0000 -0.0000 47.8536 -62.9429 -23.5449
